PathFileType	4	(X/Y/Z)	D:/Ayumi_testdata/Ayumi_25_09_2024/motion/sumo_dl_80kg00/markers_experimental.trc	
DataRate	CameraRate	NumFrames	NumMarkers	Units	OrigDataRate	OrigDataStartFrame	OrigNumFrames	
200.00	200.00	6	52	mm	200.00	999	2164	
Frame#	Time	RSACR			LSACR			USACR			LBAR			RBAR			RHEE			RMT1			RMT5			RMT2			LHEE			LMT1			LMT5			LMT2			LMMAL			LLMAL			LTIB4			LTIB2			LTIB3			LTIB1			RMMAL			RLMAL			RTIB1			RTIB2			RTIB3			RTHI1			RTHI4			RTHI3			RTHI2			LTHI1			LTHI4			LTHI3			LTHI2			FHD			LBHD			RBHD			C7			T10			CLAV			LSHO			RSHO			LRAD			LUL			LRFIN			RRAD			RUL			RUFIN			LDUPA			LMUPA			LUUPA			RDUPA			RUUPA			RMUPA			
		X1	Y1	Z1	X2	Y2	Z2	X3	Y3	Z3	X4	Y4	Z4	X5	Y5	Z5	X6	Y6	Z6	X7	Y7	Z7	X8	Y8	Z8	X9	Y9	Z9	X10	Y10	Z10	X11	Y11	Z11	X12	Y12	Z12	X13	Y13	Z13	X14	Y14	Z14	X15	Y15	Z15	X16	Y16	Z16	X17	Y17	Z17	X18	Y18	Z18	X19	Y19	Z19	X20	Y20	Z20	X21	Y21	Z21	X22	Y22	Z22	X23	Y23	Z23	X24	Y24	Z24	X25	Y25	Z25	X26	Y26	Z26	X27	Y27	Z27	X28	Y28	Z28	X29	Y29	Z29	X30	Y30	Z30	X31	Y31	Z31	X32	Y32	Z32	X33	Y33	Z33	X34	Y34	Z34	X35	Y35	Z35	X36	Y36	Z36	X37	Y37	Z37	X38	Y38	Z38	X39	Y39	Z39	X40	Y40	Z40	X41	Y41	Z41	X42	Y42	Z42	X43	Y43	Z43	X44	Y44	Z44	X45	Y45	Z45	X46	Y46	Z46	X47	Y47	Z47	X48	Y48	Z48	X49	Y49	Z49	X50	Y50	Z50	X51	Y51	Z51	X52	Y52	Z52	

542	2.705	466.50790	945.28156	711.28741	464.74490	887.03680	714.21686	448.61829	916.47217	718.79663	210.04489	-196.57051	252.23004	180.50542	2023.83008	244.43533	293.97336	1363.24976	34.77222	125.10440	1461.31335	44.03988	188.43652	1513.03503	30.08113	151.71713	1491.47498	41.55413	333.43439	485.77365	44.96308	161.55894	400.80069	48.72084	222.22475	347.31113	31.35101	184.39780	369.48831	46.03379	272.20227	500.22467	71.51196	308.91006	427.99579	71.39250	305.42664	460.17273	213.00964	280.84830	451.35501	273.05933	317.60922	486.66772	272.15869	304.29962	485.77090	311.57474	242.20209	1357.95410	64.77026	282.31516	1422.36096	72.26510	261.76678	1383.09204	317.34665	301.44974	1354.59631	304.00690	276.81357	1388.74622	253.94823	464.43689	1119.88733	600.38440	360.59268	1213.73401	551.10797	388.38126	1218.20935	508.36942	415.90820	1177.91821	553.25488	467.59140	711.01050	600.10620	355.25809	613.95166	555.11237	388.45871	617.29498	515.32104	405.14987	654.02710	567.52252	-190.02582	802.38379	887.05121	-151.77921	826.55048	990.78607	-144.81422	950.79309	985.51245	52.15536	899.85889	938.45612	401.24887	914.46069	754.36224	50.49996	907.90680	797.89575	58.29154	731.59534	847.54816	23.77856	1050.78760	836.03705	141.18584	686.77875	319.07236	138.59193	646.43488	321.29889	157.76059	702.80994	234.44217	127.02058	1134.45105	318.97717	119.33543	1181.66455	320.59442	149.79338	1129.96301	233.89940	83.58472	707.43274	624.03461	114.99813	673.86230	605.27075	95.23748	687.47192	680.60669	71.65527	1083.50610	590.49213	59.69186	1111.90393	664.24048	74.79686	1130.85327	606.56775 
543	2.710	466.43661	945.34344	710.86279	464.86484	886.92651	713.93121	448.57376	916.50134	718.39496	210.05913	-196.56160	252.22832	180.51320	2023.83972	244.44122	293.98969	1363.33179	34.79620	125.10764	1461.32458	44.04155	188.45769	1513.05408	30.07632	151.74258	1491.49695	41.54768	333.42981	485.78140	44.96325	161.56651	400.79193	48.70876	222.23763	347.31216	31.35213	184.40840	369.47510	46.02716	272.19690	500.23209	71.50311	308.88458	427.99335	71.40683	305.31638	460.16766	212.98640	280.73184	451.34805	273.04794	317.49133	486.63248	272.15424	304.19193	485.74274	311.57159	242.20598	1357.99084	64.78873	282.34286	1422.38330	72.24984	261.77963	1383.24011	317.35812	301.37424	1354.66553	303.88889	276.82672	1388.87659	253.96333	464.52457	1119.89075	600.10742	360.69443	1213.78320	550.95435	388.47174	1218.30176	508.22101	416.07001	1177.93787	552.98096	467.59949	711.05316	599.73834	355.22989	614.00470	554.91595	388.38736	617.32837	515.08734	405.20459	654.37054	567.27570	-190.11794	802.39667	886.44855	-151.87347	826.54108	990.17731	-144.91043	950.75970	984.92914	52.04654	899.83990	937.90125	401.19528	914.45276	753.93060	50.38054	907.93579	797.32373	58.19428	731.58813	846.93903	23.38715	1051.06311	835.60217	141.43944	686.92981	318.48755	138.79247	646.57318	320.65677	157.85953	703.13074	234.08199	127.20982	1134.37463	318.38052	119.34944	1181.60327	319.98953	149.99368	1129.86096	233.37637	83.48091	707.68323	623.34900	114.87131	674.06708	604.58380	95.04577	687.65326	679.91528	71.62221	1083.43689	589.91772	59.59700	1111.88123	663.62054	74.69270	1130.79114	605.97321 
544	2.715	466.44995	945.31055	710.45251	464.86145	886.94049	713.53241	448.54367	916.49194	717.96680	210.06691	-196.55400	252.22766	180.51845	2023.82910	244.44632	294.00000	1363.37305	34.78148	125.12794	1461.34277	44.03190	188.46327	1513.07263	30.07062	151.75069	1491.51904	41.55589	333.42471	485.78583	44.97012	161.55070	400.80585	48.71960	222.22896	347.31573	31.35775	184.42529	369.47116	46.02265	272.18378	500.24411	71.51345	308.88474	427.99561	71.42342	305.25470	460.14108	213.00041	280.68213	451.29086	273.06873	317.38449	486.59891	272.16998	304.08456	485.72144	311.57797	242.21605	1357.99731	64.80844	282.36111	1422.40417	72.25719	262.10919	1383.47949	317.35965	301.39465	1354.80835	303.90237	276.89505	1388.98108	253.94041	464.58533	1119.91309	599.81921	360.79434	1213.84961	550.80432	388.56573	1218.36365	508.04541	416.15463	1178.01477	552.69495	467.61423	711.10803	599.39368	355.21338	614.08398	554.69507	388.34622	617.36633	514.84283	405.17834	654.45160	566.99634	-190.21967	802.40466	885.84534	-151.96437	826.51758	989.59174	-145.00035	950.77667	984.37878	51.94755	899.84113	937.31952	401.12784	914.45306	753.47614	50.32490	907.97382	796.74493	58.14077	731.60486	846.33752	23.59867	1050.83459	834.86853	141.72218	687.06830	317.90137	139.01431	646.71088	320.04291	158.09555	703.33215	233.64932	127.36188	1134.31982	317.82425	119.42616	1181.51941	319.38724	150.19704	1129.72583	232.87624	83.42600	707.88513	622.68317	114.79704	674.26990	603.90094	95.12030	687.74500	679.24493	71.54024	1083.33252	589.32690	59.49901	1111.81152	663.00739	74.59966	1130.68335	605.33563 
545	2.720	466.43301	945.35010	710.06177	464.72720	887.09656	713.02130	448.53143	916.50903	717.56335	210.07985	-196.55643	252.23352	180.53011	2023.83215	244.45135	293.99786	1363.35120	34.79615	125.14886	1461.34521	44.01448	188.45822	1513.10266	30.06119	151.76508	1491.52563	41.55964	333.42313	485.79333	44.97477	161.54750	400.79092	48.71390	222.23134	347.30389	31.35735	184.43265	369.46664	46.02221	272.17926	500.24930	71.50733	308.87766	427.99258	71.42852	305.20035	460.09375	212.99220	280.57199	451.29138	273.03796	317.19525	486.65552	272.23096	303.97778	485.70584	311.56616	242.23344	1358.03284	64.82685	282.38123	1422.42273	72.24883	262.02438	1383.60620	317.36511	301.38812	1354.96924	303.92462	276.89896	1389.10120	253.97795	464.64133	1119.94019	599.50824	360.90100	1213.89124	550.62787	388.62997	1218.47021	507.87326	416.23877	1178.04285	552.53613	467.62213	711.19159	599.03644	355.20163	614.15253	554.49432	388.31570	617.43079	514.59808	405.15900	654.51910	566.71271	-190.30190	802.42407	885.23663	-152.07564	826.51996	988.99225	-145.12148	950.77948	983.81732	51.83569	899.84863	936.72278	401.11288	914.47662	753.05438	50.31786	907.99316	796.20178	58.07856	731.59259	845.69269	23.48054	1050.83569	834.27283	142.05209	687.18799	317.32312	139.19974	646.82056	319.47971	158.36748	703.55475	233.25166	127.54736	1134.28613	317.24686	119.47770	1181.47168	318.80850	150.42400	1129.61890	232.33301	83.36803	708.13263	622.00433	114.69737	674.42572	603.22083	94.87061	687.95471	678.54871	71.51318	1083.20996	588.71295	59.41156	1111.75037	662.38940	74.53236	1130.60938	604.72992 
546	2.725	466.39166	945.42700	709.64679	464.79355	887.01300	712.68622	448.49149	916.56396	717.12109	210.08673	-196.55815	252.23927	180.53909	2023.83887	244.45578	293.99908	1363.37012	34.80158	125.13769	1461.36682	44.00306	188.46252	1513.12427	30.05210	151.76575	1491.54822	41.57311	333.41199	485.79196	44.96992	161.54633	400.79599	48.70606	222.23830	347.30530	31.35777	184.43718	369.45963	46.01840	272.16931	500.25143	71.50937	308.82825	428.02399	71.42521	305.13660	460.11456	212.98228	280.48004	451.26074	273.02316	317.09546	486.64401	272.21713	303.87540	485.70270	311.56696	242.24716	1358.05554	64.84932	282.38742	1422.43567	72.23628	261.96423	1383.73792	317.38028	301.38965	1355.13269	303.93265	276.87262	1389.25513	253.98912	464.70157	1119.97729	599.21106	360.96283	1213.96619	550.47620	388.70450	1218.55542	507.65900	416.26193	1178.08447	552.26111	467.65472	711.24176	598.68109	355.16431	614.24182	554.28070	388.26929	617.46857	514.36920	405.15558	654.58167	566.44434	-190.39282	802.45044	884.64954	-152.18929	826.52545	988.36633	-145.18840	950.76611	983.22485	51.74110	899.85858	936.18042	401.05490	914.51160	752.62012	50.22982	908.02173	795.62231	58.03819	731.60950	845.08527	23.36596	1050.85559	833.68237	142.06113	687.22015	316.77676	139.45503	646.89038	318.87302	158.61807	703.72589	232.85603	127.71252	1134.24988	316.67227	119.53724	1181.45789	318.21716	150.61751	1129.51355	231.81464	83.35612	708.30450	621.31567	114.63741	674.62604	602.56030	94.77567	688.06793	677.86829	71.43896	1083.12317	588.12329	59.29169	1111.64771	661.76294	74.44536	1130.50830	604.09094 
547	2.730	466.38330	945.47736	709.22626	465.00491	887.21399	712.23462	448.50433	916.60901	716.69513	210.09904	-196.56186	252.24411	180.54669	2023.82861	244.45880	294.01190	1363.37781	34.79939	125.15809	1461.37573	43.99828	188.45525	1513.12646	30.03943	151.78619	1491.57312	41.56761	333.40002	485.80658	44.97495	161.55539	400.79065	48.70877	222.23039	347.29227	31.36238	184.43015	369.46039	46.01987	272.16006	500.25858	71.50518	308.86444	428.00339	71.41671	305.09503	460.08377	212.99008	280.39236	451.25937	273.02090	317.01538	486.62878	272.24203	303.77747	485.68634	311.55560	242.25972	1358.07056	64.86269	282.40076	1422.44995	72.23751	261.91064	1383.88086	317.39371	301.44766	1355.41089	304.10059	276.85178	1389.37415	254.03575	464.76843	1120.03638	598.92993	361.04523	1214.03662	550.31409	388.74557	1218.66833	507.48737	416.30643	1178.14502	551.94513	467.68210	711.28284	598.32959	355.14725	614.32745	554.04138	388.22217	617.53552	514.12085	405.15482	654.66046	566.16620	-190.49455	802.47693	884.06049	-152.25636	826.52930	987.81329	-145.30164	950.79956	982.69061	51.63980	899.87366	935.60132	401.01553	914.54346	752.19507	50.19094	908.03003	795.06061	57.96490	731.59863	844.46832	22.97755	1051.10278	833.22266	142.39249	687.24670	316.23294	139.70914	646.97870	318.29297	158.89182	703.90802	232.48784	127.91464	1134.25464	316.11032	119.60516	1181.42285	317.62820	150.82280	1129.42188	231.30653	83.35433	708.48297	620.67334	114.62998	674.76672	601.91736	94.84441	688.17706	677.21655	71.36275	1082.97107	587.49866	59.20104	1111.58423	661.12585	74.37786	1130.38879	603.44250 
